<svg version="1.2" xmlns="http://www.w3.org/2000/svg" viewBox="94.25 167.18 804.68 742.52"><style>.s0{fill:#161813}.s1{fill:#434440}</style><path class="s0" d="M757.6 908.3c-6.3-2.2-16.7-12.4-22.4-21.9-2.4-3.9-5.7-11-7.4-15.7s-3.6-8.8-4.2-9c-.6-.3-5.2.1-10.1.9-49.5 7.2-82.2 7.3-130.5.3-14-2-38.2-7.1-49.1-10.3-9.5-2.9-9.6-2.8-21.4 9.9-11.1 11.8-18 17-30 22.7-6.1 2.8-8.1 3.3-15 3.3-9 0-11.9-1.2-18.7-7.3-7.1-6.4-9.4-14.9-6.7-24.7 1.7-6.3 9.3-16.7 17.8-24.7 4.3-4 7.6-7.9 7.4-8.6-.3-.7-2.6-2.6-5.1-4.4-16.9-11.4-36.1-34.2-45.4-53.6-9.4-19.8-14.2-35.7-17.4-57.7-2-14.5-2.8-56-1.6-84.5.6-13.2.6-23 .1-23.6s-5.5-1.4-11.1-1.7c-5.7-.3-16.1-1.5-23.2-2.7-7-1.2-14-2-15.5-1.8-2.6.3-2.6.4-3.2 10.3-.4 7.3-1 10.7-2.4 12.8-1.7 2.7-1.7 3.1-.1 9 1 3.4 2.4 7.6 3.1 9.2.8 1.7 4.4 12.5 8 24 3.6 11.6 9.2 28.9 12.5 38.5 3.2 9.6 8.6 26.1 11.9 36.5 3.3 10.5 7.1 22.2 8.5 26 1.3 3.9 8.5 25.7 16 48.5s15 45.8 16.7 51c5.8 17.3 3.9 26.9-6.3 31.9-5.4 2.6-14.5 2.8-19.5.5-6.2-3-8.3-7.3-17.5-34.8-8.6-25.7-20-61.3-23.3-73.1-1-3.3-2.6-7.8-3.6-10s-3.8-11.1-6.4-19.8c-2.5-8.7-7.2-23.8-10.4-33.5s-7.3-22.3-9-27.9c-5.2-16.9-6.6-15.5-7.5 7.6-.4 9.1-1.1 22.7-1.6 30.1s-1.8 33.1-3 57c-3.3 69.4-4.4 83.2-7.2 88.8-1.3 2.5-3.5 5.5-4.9 6.5-6.3 4.6-18.6 2.6-23.3-3.6-4.4-5.7-5-11-3.6-29.5 1.6-22.7 1.9-58.4.3-58.9-1.6-.6-6.3 14.3-13.8 44.2-6 23.7-10.3 39.2-14.1 50.1-.8 2.2-2.9 5.5-4.7 7.2-6.2 6-19.2 6.7-26.7 1.3-3.3-2.3-6-7.8-6-12.2 0-4 3-16.1 6.6-26.4 1.4-3.8 5.9-19.1 10-34 4.2-14.8 8.7-30.3 10-34.3 1.4-4 5.5-18.6 9.3-32.5 3.8-13.8 8.1-29 9.5-33.7 1.5-4.7 6.2-21.5 10.5-37.5 4.4-15.9 9.8-35.3 12-42.9 2.3-7.7 4.2-14.9 4.3-16.1.1-1.1-1-3.7-2.4-5.6-3.7-4.8-6.5-19.6-4.9-25.6 1.6-5.7 5.2-9.7 9.9-11.1 5.7-1.7 6.3-2.9 6-11.8l-.3-7.8-4.7-1.2c-12.2-3.1-14.8-6.9-16.2-24.3l-1.1-12.6-23.5-.6c-13.4-.3-24.6-1-26.1-1.6-5.3-2.3-9.9-10.3-9.9-17.5 0-3.1-1.5-3.9-5-2.6-1.4.6-7.5 1.4-13.7 1.9-8.8.7-12.7 1.6-18.2 3.9-8 3.4-17.3 4.9-30.7 5-13.2 0-18.6-1.9-25.4-8.8-13.9-14.3-21-41.4-18.1-68.6 1.4-12.9 6.8-28.7 12.8-37.5 4.5-6.5 12.2-12.8 16.7-13.6 1.8-.4 11.2-.5 20.8-.3l17.4.3 7.4 4.3c7.4 4.3 9.8 5 23.1 7.1 10.4 1.7 11.8 1.5 12.5-1.6.3-1.6 1.8-5.4 3.1-8.5 3-6.8 2.6-7.7-4.5-10.3-8.9-3.3-15.8-8.4-23.7-17.2-13.5-15.1-20.2-32.3-21.2-55-1.8-37.4 12.7-69 37.1-81.5 5.2-2.7 13.5-5.5 21.4-7.3 8.3-2 28-1.9 35.2 0 13 3.4 24.3 11.1 32.3 21.8 1.5 2 3.4 3.7 4.2 3.7s4.5-3.1 8.2-6.8c7.3-7.3 15.2-11.8 25.8-14.8 9.2-2.5 35.1-3.1 43.4-.9 6.5 1.7 14.4 5.2 19.3 8.6 4.5 3.2 5.4 2.5 7.2-5.1 2-9.2 4.8-14.3 10.7-20.1 15.4-15 38.8-13.9 57 2.6 2.2 1.9 4.4 3.5 5 3.5s5.9-2.9 11.8-6.4c14.3-8.6 18.9-10.8 31.1-15.1 31.6-11 58.7-15.9 95-17.1 21.1-.8 55.4.9 74.4 3.6 16.7 2.4 42.2 8.6 60.6 14.7 18.3 6.1 47.2 19.4 58.6 26.9 6 4 7.6 4.2 10.1 1.2 4.8-6 17.4-12.9 26.9-14.8 3.4-.7 9.9-1.1 14.6-.9 14.6.7 25.1 7.6 31 20.5 3.1 6.8 3.1 20.1-.1 29.4s-11 20.7-20.2 29.4c-4.3 4.1-7.9 7.9-7.9 8.4s1.8 6.1 4 12.4q5.4 15.4 11.1 46.8c2.1 11.2 1.8 68.4-.4 84.5-1.8 13.2-5 44.7-6.8 67.7-.7 8.8-.9 25.6-.6 42 .5 27.9 1.9 42.8 5.8 61.8 7.4 35.7 9.4 55.8 9.1 90.5-.1 15.4-.3 30.4-.5 33.4l-.2 5.5 6 1.8c11.7 3.4 19.6 13.4 19.4 24.5-.1 10.4-5.1 18.9-14 23.8-5.2 2.9-5.9 3-17.8 3h-12.4l-4.3 6.5c-2.3 3.6-7.5 10.3-11.6 15-8.7 10-24.2 21.4-42.5 31.2-13.6 7.3-13.6 7.3-8.5 17.5 5.4 10.9 6.7 16 6.7 26.8 0 7.8-.4 10.8-1.9 13.5-2.6 4.9-8.4 10.8-13.1 13.2-5.4 2.8-15.5 3.3-21.9 1.1m6.3-17.4c-3.7-11.9-2.2-15.9 6.1-15.9 5.4 0 7.2 1.6 10.2 9.5l1.6 4 .7-3.7c1.5-7.8-6.8-32.7-10.4-31.3-2.6 1.1-25.8 7.4-29.6 8.1-1.9.3-3.5 1.1-3.5 1.7 0 2.2 8 17.4 11.7 22.2 4 5.2 11.6 11.5 13.8 11.5 1 0 .9-1.3-.6-6.1m-533.7-9.6c1.8-2.1 7.1-20.1 15.8-53.3 3.4-12.9 7.7-28.7 9.5-35 1.9-6.3 5.9-21.6 9-34s7.6-29.5 10-38.1c2.4-8.5 6.7-24.7 9.5-36 2.8-11.2 7.3-28.6 10.1-38.5 2.7-10 4.9-18.4 4.9-18.8 0-.3-1.3-.6-3-.6-2.8 0-3.1.4-4.9 6.8-9.5 32.4-14.6 50.2-22.6 79.2-3 10.7-8.8 31.2-13 45.5-4.1 14.3-11.4 39.5-16.1 56s-10.8 37.3-13.5 46.2-4.9 17.1-4.9 18.2c0 3.9 6.5 5.5 9.2 2.4m177.4-3.7 2.8-2.3-2.1-4.9c-1.1-2.7-4.4-12.5-7.3-21.9-2.9-9.3-6.7-21.3-8.5-26.5s-14.4-43.2-27.9-84.5c-13.6-41.2-27.4-82.6-30.5-92l-5.8-17-4.3-.3c-2.3-.2-4.7.1-5.2.6s.8 6.3 3.1 13.8c2.2 7.1 6.3 20.6 9.1 29.9 2.8 9.4 7.3 23.8 10 32 2.6 8.3 10.1 31.4 16.5 51.5s16.3 50.9 22 68.5 11.5 35.9 12.9 40.6c2.5 8.3 5.5 12.7 9.6 14.2 2.5.9 2.8.8 5.6-1.7m75.4-7.3c4.2-2.4 23-19.9 23-21.3 0-.4-2.4-1.7-5.2-3-2.9-1.3-9.5-4.3-14.7-6.7l-9.3-4.3-2.7 1.9c-4.7 3.4-13.8 13.5-16.4 18.1-2.6 4.7-5 11.6-2.6 7.5.6-1.1 2.3-3.2 3.7-4.7 2.2-2.4 3.4-2.8 7.9-2.8 4.1 0 5.4.4 6.3 1.9 1.9 3.7 1.1 9.4-2 14.1-1.6 2.5-3 4.8-3 5.2 0 1 9.4-2.7 15-5.9m-190.1-2.1c1.1-3 2.1-18 5.1-80.2 2.2-45.7 3.7-75 4.4-88l.5-8.5-2.4 8.5c-1.4 4.7-4.5 16.4-6.9 26-4.2 16.6-4.5 18.5-5.1 36-.3 10.2-1.3 32.9-2.1 50.5-.7 17.6-1.4 37.5-1.4 44.2 0 11.3.2 12.3 2.1 13.7 2.7 1.8 4.4 1.2 5.8-2.2M671.5 855c22-1.6 37.6-3.8 56-8.1 29.8-6.9 41.2-11.1 61.5-22.2 30-16.4 44.8-31 57.7-57.2 7.4-15.1 11.2-28.9 13.7-49 3.7-30.1 1.3-59.9-9.9-126.4-6-35.5-6.8-77.8-2-114.7 6.2-47 9-99.3 6.5-121.6-2.3-21.8-8-44.6-15.1-61-1.7-3.8-2.9-8.4-2.9-10.8 0-4 .5-4.6 11.9-15.8 11-10.8 12.2-12.4 16.6-21.6 5.4-11.3 5.9-15.9 2.7-22.2-4.3-8.4-16-15.2-24.1-14.1-2 .2-7.2 2.1-11.5 4.1-6.4 2.9-9.5 5.2-16.6 12.3-5.1 5.2-10.3 11.6-12.6 15.6l-3.8 6.7h-6.1c-3.4 0-6.6-.5-7.3-1.2-2.2-2.2-1.4-10.1 1.7-16.2l2.9-5.7-3.7-2.4c-2.1-1.2-9.3-5.1-16.2-8.5-31.7-15.8-59.9-25.3-88.9-29.9-57.8-9.2-120.2-5.4-160.5 9.7-21.2 7.9-44.4 21-57.7 32.6l-8.3 7.1 13.5.6c21.6 1 33 5.8 45.5 19.1 8.4 8.9 13.2 17.6 16.7 30.4 2.9 10.5 3.2 37.6.6 46.9-1 3.2-1.6 6-1.5 6.2.1.1 2.3-.3 4.7-.8 2.5-.6 9.5-.9 15.5-.7 8.7.3 12.1.9 16.2 2.7 6.3 2.8 12.8 9.5 14.2 14.8 1 3.5 1.5 4 7.6 6.2 3.7 1.3 8.6 3.8 11 5.6l4.3 3.3-4.1-6.7c-7.1-11.7-10.6-25.2-10.7-41.3 0-18.5 3.5-32.9 11.6-46.5 12.7-21.5 29.9-34.1 55.3-40.4 10-2.5 13.5-2.9 25.6-2.9 15.6 0 26.3 2.2 38.8 7.9 18.2 8.2 34.2 24.9 42.1 44 4.9 11.8 6 18.5 6 36.1-.1 15-.3 17.3-2.8 25.5-4.5 15-9.6 23.2-21.2 34.5-8.5 8.3-11.5 10.5-19.5 14.4-13.9 6.7-25.6 9.6-41.6 10.3-28.8 1.3-51.1-6.3-69.7-23.6-3-2.8-3.5-3-2.3-1.1 4.8 7.5 5.9 24.8 2.3 33.5-3.6 8.5-12.1 15.8-20.8 17.9-3 .7-2.9.4-4.8 17.1-.7 7.3-1.8 11.5-3.8 15.5-5 10.1-12.1 12.5-34.7 11.8-16.5-.5-20.6-1.9-27.2-9-5.1-5.6-6.2-9-7.6-24.5l-1.1-12.3-4.7-1.5c-6.2-2.1-13.3-8.4-16.7-14.9-2.4-4.6-2.7-6.1-2.7-16.1v-11.1l-5.6 2.3c-12.8 5.2-29.6 6.7-44.1 3.9-8.9-1.7-15-4.3-22.8-9.6-5.8-4-6-4-6.5-1.8-1.8 7.7-2.7 19-3.2 39.3-.4 18.7-.1 27.3 1.6 46 4.7 51.6 5.1 73.9 2.6 131-2.7 60.4-1.7 101 3 124 3.7 18.2 14.5 42.9 24.8 56.3 12 15.9 27.4 29.7 45.3 40.5 13.6 8.2 34.8 17.1 53.7 22.6 44.2 12.9 90.4 18.1 133.2 15.1m205.6-85.6c6.8-3.4 10.4-11.7 7.4-17.3-1.5-3.1-6.8-7.1-9.1-7.1-.7 0-2 3.3-2.9 7.3-1 3.9-2.8 9.8-4 12.9-2.1 5.1-2.2 5.7-.7 6.1 2.2.5 6-.2 9.3-1.9M331 609c2.5-2.5 2.7-9.5.4-12.8-1.5-2.2-2-2.2-21.9-2.2-11.2 0-21 .3-21.9.6-1.1.4-1.6 1.9-1.6 5.3 0 5.7 1.8 9.3 5 10.2 1.4.4 10.5.7 20.3.8 16.4.1 17.8 0 19.7-1.9m64.8-41.6.2-18.1-6.7 1c-3.8.5-13.4.7-21.5.5l-14.6-.4-.6 2.9c-.9 4.2-6.6 9.4-12 10.9l-4.6 1.2v11.4l6.3 2.1c11.9 3.8 33.4 7 45.7 6.8l7.5-.2zm-77 2.9.3-5.3H301v4.8c0 2.7.3 5.2.7 5.6s4.3.5 8.8.4l8-.3zm11.2-23.2c6.6-1.3 8.1-3.8 7.8-12.5l-.3-7.1-29.2-.3-29.3-.2v6.9c0 5.9.4 7.4 2.3 9.7 2.1 2.4 3.4 2.8 9.8 3.4 10.9 1 33.7 1 38.9.1m60.4-10.6c3.7-.8 7.5-2 8.4-2.7 1.3-1.1 1.4-4.1.9-21.3-.6-21.2-2.2-40.5-3.7-44.2-.7-1.8-1.8-2.3-4.5-2.3-4.4 0-4.3-.4-4.8 22.5-.3 16.9-.5 18.5-2.9 23.7-3.7 8-5.6 8.9-19.6 9.7-6.4.4-12.3 1-13 1.4-1.6 1.1-1.6 11.1.1 12.5 2.8 2.3 29.1 2.8 39.1.7m-48.2-27.2c26.8-.6 28.9-.8 30.5-2.6 1.7-1.8 1.8-5.4 1.8-48.6 0-53.5-.4-59.2-4.5-63.3l-2.8-2.8h-44.1c-40.9 0-44.1.1-44.9 1.8-1 2-.6 114.8.4 116.4.5.8 6 .9 17.8.5 9.4-.4 30-1 45.8-1.4m-84.3-1.6c1.2-1.6 1-113.4-.3-115.5-.5-.9-5.4-1.2-17.7-1.2-15.6 0-17.1.2-18.9 2-3.1 3.1-2.5 4.8 1.8 5.6 9.8 1.8 20.7 10.5 25.6 20.5 4.2 8.6 5.6 15.3 5.6 26.9 0 18.1-4.4 30.3-14.2 39.6-6.4 6.1-8.7 7.6-15.5 9.8-4.9 1.6-5.3 2-5.3 5 0 7.1 3.2 8.2 26.1 8.5 8.6.1 11.9-.2 12.8-1.2m-88-19.7c11.2-13.9 17.6-38.1 14.3-53.6-2.7-12.5-11-27.4-18.6-33.3-6.1-4.9-6.9-3.8-2.6 3.7 13.9 24.2 14.2 58.3.6 85l-2.7 5.4 3-1.8c1.7-1 4.4-3.4 6-5.4m-53.9-5.3c-5.7-12-7.3-21.1-6.7-38.1.6-20.5 3.6-30.5 12.5-41.6l3.6-4.5-3.3 3c-11 10-18 35.3-15.3 55.4 1.3 9.7 4.9 21 8.8 27.9 3.6 6.1 3.7 5.2.4-2.1m88.1-4.5c6.2-9.9 9.7-26.2 8-37.7-1.8-12.3-7.6-24.6-13-27.4-1.8-1-1.8-.9-.1 4.7 5.4 17.4 4.6 43.9-1.9 62.6-1.2 3.3-2.1 6.1-2.1 6.3 0 1.5 6.7-4.8 9.1-8.5m31.5-23.6c.8-2.8 1.4-6.7 1.4-8.7 0-4.8-3.4-15.7-6-18.9l-1.9-2.5.7 4c.9 5.2.9 30.5 0 37l-.7 5 2.6-5.4c1.4-2.9 3.2-7.7 3.9-10.5m328.9 2c4.2-1.8 5.4-4 7.1-13.5 2.3-12.8 3.8-11.1-14.3-15.9-1-.3-1.3 3.1-1.3 14.6 0 8.2.3 15.2.7 15.5 1 1.1 4.1.8 7.8-.7M541 442.8c0-7.3-.4-13.9-.9-14.6-.5-.9-1.9-1.1-4.3-.7-6.2 1.2-6.3 1.4-5 10.4 1.5 10.7 5.3 17.9 9.5 18.1.4 0 .7-6 .7-13.2m48.8-31c4.1-2 8.1-6.6 9.6-11.4 1-3.2-5.7-15.6-10.3-19.3-6.5-5.2-8.4-5.5-13.3-2.2-5.3 3.5-9.2 4.8-18.7 6.1-12.3 1.7-28.5-1.4-34.2-6.6-2.2-2-4.2-1-9.7 5-4.5 4.9-7.2 10.3-7.2 14.6 0 4 5.1 10.4 9.9 12.4 5.2 2 7.8 2 15.5-.1 3.9-1.1 10.1-1.7 17.6-1.7 9.9-.1 12.6.3 19.5 2.6 12.5 4.2 13.5 4.2 21.3.6m-195.9-3.2c.6-.7 1.5-6.6 2.1-13.1.5-6.5 1.9-16.9 3.1-23.1 3.4-18.4 1.3-21-9-11.1-4.4 4.3-9 7.5-13.8 9.8-10.3 4.8-10.6 6.5-1.8 10.4 7.5 3.3 10.7 8.4 11.4 18.5.4 4.1 1 8.1 1.4 8.8 1.1 1.6 5.2 1.5 6.6-.2m301.7-24.1c16.1-4.2 25.4-9.3 35.5-19.4 6.2-6.2 9.6-10.6 12.2-15.6 9.3-18.6 10.7-34.3 4.7-51.9-8.2-24.1-25.2-40-50.9-47.7-6.3-1.9-8.9-2.1-19-1.6-10 .4-12.9 1-21.4 4-15.8 5.7-24.8 12.2-35.1 25.1-20.5 25.8-20.6 57.8-.2 83.2 9.7 12.1 21 19.2 38.1 23.8 12.5 3.3 23.3 3.4 36.1.1M471.5 373c18.6-7 36-25.4 42.1-44.4 7.2-22.3 1.9-45.9-13.7-61.8-13.9-14.2-33.4-19-52-12.8-12 4.1-17.1 7.2-26 16-7.7 7.5-9.3 9.7-13.8 19.3-5.1 10.6-8.1 21.3-8.1 28.5 0 6.8 2.8 16.6 7.1 25.7 7.4 15.5 20.5 26.5 36.9 31 7.5 2 19.7 1.4 27.5-1.5m-159.1-1.8c-4.8-3.5-12.9-12.4-15.7-17.3l-2.1-3.6-4 5.9c-2.2 3.3-6.1 7.9-8.8 10.3-2.6 2.4-4.8 4.8-4.8 5.4 0 1 3.4 1.2 30.9 1.9l8.4.2zm55.2-12.1c6.8-3.2 12.7-8.1 16.8-13.9 2.4-3.6 2.6-4.3 1.7-8.4-1.8-7.9-2.4-23-1.2-32.3 1.5-12.6 3.5-19.3 8.3-29.1l4.2-8.5-1.8-5.2c-4.6-13.2-14.5-24.9-25.3-30-5.6-2.5-8.1-3.1-13.8-3.2-6 0-8 .5-13.8 3.4-15.7 7.6-27.2 26.1-30.8 49.1-1.6 10.7-.6 30.6 2 39.8 5.8 19.9 18.6 35.6 32.9 40.3 7.1 2.4 12.6 1.8 20.8-2m-110.2-.4c12.3-5.7 24.5-22.7 29.1-40.7 2.3-9.2 3.1-27.3 1.5-37.9-1.6-10.8-5.7-23.4-10.1-30.7-4.9-8.1-15.4-17.7-22.6-20.5-19.3-7.6-39.4 3.3-50.9 27.6-7.8 16.4-10.3 38.7-6.6 56.9 7.4 35.3 35.2 56.5 59.6 45.3M429 239.4c0-.3-2.1-1.4-4.7-2.5-5.7-2.4-6.3-3.2-6.3-8.6 0-3.1.6-4.9 2.1-6.4 1.9-1.9 2.9-2.1 8.5-1.5 3.5.4 7.5 1.1 8.9 1.6 2.1.8 3.1.3 8-4.4l5.6-5.4-6.3-4.1c-11.4-7.4-22.1-7.5-31-.1-4.8 4-8.8 12.1-8.8 17.9 0 4.9 3.6 13 8.5 19.4l2.6 3.5 6.5-4.5c3.5-2.4 6.4-4.7 6.4-4.9"/><path class="s0" d="M584 664.5c-.8-.2-5.5-.9-10.5-1.5-22.7-3.1-38.9-12.2-42.3-23.7-1.6-5.7-1.5-29.9.2-33.2 1.8-3.3 6.2-7.4 10.6-9.7 3.1-1.7 5.6-1.9 24-1.6 28.2.3 44.5-1.7 75.5-9.4 10.8-2.8 29.7-10.2 41.3-16.5 5.9-3.1 8.4-3.9 12.6-3.9 7.1 0 8.8 1.9 8.4 9.1l-.3 5.3-9 4.8c-12 6.3-36.9 16.1-47.9 18.8-30.3 7.3-46.7 9.2-74.1 8.8-19.4-.3-21.2-.2-23.9 1.6l-2.8 2 6.2 1.3c9.2 1.8 11 3.3 11 9.1 0 6.7-.9 7.6-8.2 8.2l-6.3.5 4 2.7c7.5 5.1 26.1 9.9 43.5 11.3 21.9 1.8 58.6-4.3 77-12.7 3.6-1.7 7.6-3.5 9-4s6-3 10.3-5.5c6.8-4 8.3-4.5 11.9-4 2.2.3 4.5 1.1 4.9 1.9.5.7.9 4 .9 7.3v6.1l-5.2 3.1c-15.7 9.5-41.4 18.3-64 21.8-9.3 1.5-52.7 3-56.8 2M817.3 266c-4.8-2.1-5.8-4.5-5-11.8.5-4.3 1.2-5.3 9.4-13.3 13-12.6 19.1-15.2 26.1-10.9 2.9 1.8 3.2 2.4 3.2 6.9v4.8l-8.9 7.6c-7.5 6.4-9 8.1-9.6 11.4-.3 2.1-1.4 4.6-2.2 5.6-2.1 2.3-7.7 2.2-13-.3M290.2 461c-1.2-.5-2.7-2.1-3.2-3.5-1.3-3.4-1.3-42.6 0-45.9.5-1.4 1.8-3.4 3-4.6 1.9-1.9 3.1-2 33.8-2 34.9 0 35.5.1 38.4 6 1.5 2.9 1.8 6.3 1.8 21 0 18.9-.8 23.9-4.5 27.6l-2.4 2.4-32.3-.1c-17.8 0-33.3-.4-34.6-.9m55.8-27v-11h-43v22h43zm316.4-92.6c-9.3-3.3-15.6-13-15.7-24.3-.2-9.2 1.6-14.5 7-20.2 5.9-6.3 11.7-8.3 22.2-7.7 12 .7 20.1 6.3 23 15.7 1.4 4.8 1.4 17.4 0 22.5-1.5 5.4-8 12.1-13.6 14-5.8 2-17.4 1.9-22.9 0m-245.4.1c-8.6-3.9-14-12.9-14-23.5 0-9.8 1.5-13.8 7.4-19.6 6-6.1 10.8-7.8 20.6-7.2 9.2.5 15.5 3.9 19.5 10.3 2.7 4.3 3 5.8 3.3 14.4.3 9 .2 10-2.5 15.1-2.1 4-4.2 6.3-7.8 8.5-4.3 2.7-5.8 3-13.9 3.3-6.6.1-10.1-.2-12.6-1.3m-67.5-14.6c-3.7-2.1-7.7-6.4-9.8-10.4-2.9-5.5-3.6-21.8-1.3-29.7 2-7 8.3-14.3 13.4-15.8 9.9-2.7 19.1 0 24 7.2 3.9 5.7 5.2 10.6 5.2 20.4 0 12.7-3.3 20.9-10.6 26.6-2.3 1.9-4.3 2.3-10.9 2.6-4.7.1-8.8-.2-10-.9m12.1-22.1c3-5.9-.1-17.1-3.9-13.9-.8.6-2 3.1-2.7 5.5-1 3.8-1 4.9.5 8 2.1 4.4 3.9 4.6 6.1.4m-128.7 18.9c-6.7-5-9.3-11.2-9.8-22.7-.4-11.5 1.1-18.5 5-24 4.6-6.3 8.1-8 16.7-8 8.4 0 11.5 1.3 16.1 6.5 5.4 6.2 6.4 9.8 6.5 22.5.1 10.7-.1 11.9-2.8 17.3-1.8 3.8-4.3 6.9-6.9 8.8-3.7 2.6-4.7 2.9-12.3 2.9-7.8 0-8.5-.2-12.5-3.3m14-18.1c3.3-4 3.1-12.7-.4-15.6-2.1-1.8-4 .1-5.5 5.4-2 7.1 2.3 14.6 5.9 10.2"/><path class="s1" d="M220.8 885.5c-4.7-2.6-4.5-5.8 1.5-25.8 3.1-10 9.4-31.7 14.1-48.2s12-41.7 16.1-56c4.2-14.3 10-34.8 13-45.5 8-29 13.1-46.8 22.6-79.2l2-6.8h6c4.2 0 6.1.4 6.5 1.4.3.8-1.9 10.6-5 21.8-3 11.2-7.8 29.5-10.6 40.7-2.8 11.3-7.1 27.5-9.5 36-2.4 8.6-6.9 25.7-10 38.1s-7.1 27.7-9 34c-1.8 6.3-6.1 22.1-9.5 35-9.1 34.9-14 51.3-16 53.3-2.3 2.5-8.8 3.1-12.2 1.2m178.2-3.2c-4.1-1.5-7.1-5.9-9.6-14.2-1.4-4.7-7.2-23-12.9-40.6s-15.6-48.4-22-68.5-13.9-43.2-16.5-51.5c-2.7-8.2-7.1-22.4-9.9-31.5-2.7-9.1-6.8-22.6-9.1-30.1-2.4-7.9-4-15.1-3.8-17l.3-3.4h15.8l5.8 17c3.1 9.4 16.9 50.8 30.5 92 13.5 41.3 26.1 79.3 27.9 84.5s5.6 17.2 8.5 26.5c2.9 9.4 6.3 19.6 7.6 22.8 2.8 6.6 2.4 9.7-1.3 12.7-2.5 1.9-7.9 2.5-11.3 1.3m-115.5-9.7c-2.3-2.3-2.3-2.8-1.9-13.7.2-6.3 1.1-27.8 1.9-47.9s1.7-44.1 2.1-53.5c.5-15.3.9-18.6 4.6-33 3.9-15.9 15.5-57.6 16.2-58.2.5-.5-.3 21.5-2 55.2-.8 16.5-2.3 48-3.4 70-3.8 77.4-4 80.5-7.4 82.7-2.4 1.6-7.7.8-10.1-1.6m4.5-259.5c-3.5-1-4.9-4.6-5.2-13-.1-5.4.2-7.5 1.3-8.2.8-.5 12.1-.9 25.1-.9 28 0 26.8-.5 26.8 11.7 0 11.5.4 11.3-24.7 11.2-11.5-.1-21.9-.4-23.3-.8m10.7-34.7c-.4-.4-.7-4.3-.7-8.6V562h24.1l-.3 8.3-.3 8.2-11.1.3c-6 .1-11.3-.1-11.7-.4M288.1 550c-6.4-.6-7.7-1-9.8-3.4-2.1-2.5-2.3-3.7-2.3-12.7V524l32.3.2 32.2.3.3 10.1c.3 12-.7 14.1-7.8 15.5-5.2.9-34 .9-44.9-.1m-12.5-36.9c-1.1-1.7-1.5-120.3-.4-122.3.8-1.7 4.1-1.8 47.9-1.8h47.1l2.8 2.8c4.1 4.2 4.5 9.7 4.5 66.3 0 46-.1 49.8-1.8 51.6-1.6 1.8-3.7 2-29.5 2.6-15.2.4-37.2 1-48.8 1.4-15.8.4-21.3.3-21.8-.6m80.9-56.5c3.5-3.6 4.5-8.7 4.5-24.6 0-16-1.1-20.3-6-22.7-1.8-.9-10.3-1.3-31.2-1.3-37 0-34.8-1.7-34.8 26.5 0 18.5.6 22 4.2 23.5 1.3.5 15.5.9 31.6.9l29.3.1z"/><path class="s1" d="M300 434v-14h49v28h-49zm-75.3 77.1c-7.4-.8-8.7-2.4-8.7-10.7v-6.2l5.3-1.8c6.8-2.2 9.1-3.7 15.5-9.8 18.5-17.6 19-52.9 1.1-70.8-5.1-5.1-12.3-9.1-18.1-10.2-3.7-.7-3.8-.8-3.8-5.1 0-3.2.6-5.1 2-6.5 1.9-1.9 3.3-2 21.9-2 14.9 0 20.2.3 20.8 1.3 1.3 2 1.5 119.8.2 121.4-.9 1-4.7 1.3-15.8 1.2-8-.1-17.2-.5-20.4-.8M122.3 499c-10.5-6.3-19.2-29.5-19.3-51-.1-34.8 17.1-61.7 33-51.8l3.5 2.2-4.4.9c-8.1 1.6-16.7 13-20.7 27.4-.9 3.2-1.9 11.2-2.1 17.9-.4 10.1-.2 13.4 1.6 20.5 4.2 16.8 13.5 31 21.1 32.5 3 .7 3.2.8 1.5 2.1-2.8 2-10.5 1.6-14.2-.7m32.2-2.5c11.3-14.9 17.7-39.1 15.5-58.5-1.6-14.2-8.8-31.4-16.4-39.5-4.1-4.4-3.2-5.1 5.2-4.1 8.5 1 13.4 5 20.2 16.4 7.4 12.5 8.4 16.7 8.4 34.2 0 14.4-.2 16.1-2.7 23.5-7.1 20.2-16.1 30-29.6 32.1l-4.3.7z"/><path class="s1" d="M188 491.1c0-.6.9-2.5 2-4.4 6.9-11.7 10.9-34.6 8.9-51-1.1-9.5-5-23.5-7.6-27.5-1.9-3-1.4-3.4 2.7-2.2 18.9 5.4 27.3 35.8 17.9 64.6-2.8 8.7-7.1 14.9-12.6 18.4-4.5 2.9-11.3 4.1-11.3 2.1m33-9.7c0-.4 1.1-3.6 2.4-7.3 5.8-16.1 6.1-36 .6-52.2-1.7-5-2.9-9.3-2.7-9.5.9-.9 7.5 4.6 10.9 9.1 7.1 9.3 9.6 24 6.3 36.5-2.3 8.6-7.2 17.6-11.4 20.9-3.7 2.9-6.1 3.9-6.1 2.5m168.6-25.6c-.3-.7-.7-9.1-1.1-18.6-.6-15.3-.4-17.3 1-17.8.9-.4 2-.3 2.5.2.4.5.9 9 1.1 18.9.4 16.5.3 18-1.4 18.3-.9.2-1.9-.2-2.1-1M285 376.1l-11.5-.6-.3-3.3c-.3-2.7.3-3.8 4.4-7.5 5.3-4.8 11.1-12.3 14.3-18.5 1.2-2.3 2.3-4.2 2.6-4.2.2 0 1.8 2.7 3.6 6.1 4.4 8.3 14.5 18.9 21.4 22.5 3.5 1.8 5.5 3.5 5.5 4.7 0 1.5-1.3 1.7-14.2 1.5-7.9-.1-19.5-.4-25.8-.7m58.8-12c-10.8-3.5-20.9-13.4-27.9-27.3-11-21.7-11-58.2 0-82.1 4.2-9.2 11.3-18 18.3-22.7 8.3-5.5 15.2-7.4 25-6.7 13.9.9 24.8 7.9 33.4 21.2 3.8 6 8.4 17.2 8.4 20.5 0 1.1-2 6-4.5 10.8-9.1 18-11.3 36.9-7 58.2 1.6 7.6 1.1 8.9-6 16.8-9.9 11-26.4 15.7-39.7 11.3m23.7-41.9c6.6-5.2 10.5-14 10.5-23.6 0-15.3-9.9-26.9-21.3-25.1-6 1-13 8.4-15.3 16.1-2.1 7.4-1.5 18.3 1.4 23.9 2 4 6 8.2 9.7 10.4 3.1 1.8 11.8.8 15-1.7"/><path class="s1" d="M354.5 310.3c-6.7-6.7-3.1-24.3 5-24.3q5.7 0 6.3 10.5c.2 3.6.1 7.6-.2 9-1.4 5.7-7.6 8.4-11.1 4.8M230 362.8c-17.1-6-30.4-23.5-35.2-46.4-2.6-13-2.1-35.5 1.2-47.9 5.4-20.4 16.6-35.7 31-42.3 4.7-2.2 6.9-2.6 15.5-2.6 13.3-.1 19.2 2.2 28.3 10.9 15.6 14.7 22.1 35.1 20.9 65.6-.6 16.9-2.2 23.8-8.2 36.5-5.5 11.4-14.3 21-23.1 25.1-8.3 3.9-21 4.3-30.4 1.1m24.7-41.7c2.6-1.9 5.1-5 6.9-8.8 2.6-5.1 2.9-6.8 2.8-14.3-.1-9.5-1.6-13.9-6.5-19.5-4.1-4.7-7.8-6.5-13.1-6.5-11.5 0-19.7 12.8-18.6 29.2.5 8.2 3.9 15.1 9.7 19.5 3.6 2.8 5.1 3.3 9.5 3.3 4.3 0 6.1-.6 9.3-2.9"/><path class="s1" d="M240.8 309.8c-5-3.8-5-17.3 0-23.1 2.3-2.6 7-1.8 9.6 1.6 1.7 2.2 2.1 4.3 2.1 9.7s-.4 7.5-2.1 9.7c-2.4 3.1-6.9 4.1-9.6 2.1"/><path d="M616 856.9c-45.9-3.5-85.1-13.1-119.5-29.4-25.4-12-46.7-29.1-60.5-48.7-11.1-15.6-22.2-42.9-25.4-61.9-3.9-24.1-4.6-59.6-2.1-117.4 2.4-56.4 1.6-97.8-2.6-132.5-1.7-14.3-2.3-53.3-1-67.6 1.2-13 3.3-25.9 4.4-27 .3-.3 3 1.4 6 3.9 20.4 16.6 52.3 18.1 76 3.6 2.6-1.6 5.1-2.9 5.7-2.9.5 0-.5 3-2.2 6.8-4.2 9.2-4.3 16.3-.4 25 3.6 7.7 9.4 13.1 16.9 15.7l5.4 1.8.5 10.1c1.4 25.9 9.5 34.9 32.4 36.3 13.2.8 22.4-1.5 28-7.1 5.1-5 6.7-10 8.4-25.5 1.2-10.7 1.4-11.3 3.9-12.3 7.4-2.9 9.6-4.2 14.1-8.4 7-6.5 9.3-11.8 9.2-21.1-.1-10-3.9-18.2-12.1-26.3-4.6-4.5-7.6-6.4-13.7-8.8-7.6-2.9-7.8-3.1-9.6-8-3.9-10.3-14.7-16.3-29.8-16.4-15.3-.2-22.2 3.9-29.4 17.3-1.6 3-3.1 4.9-3.3 4.3s1.7-4.4 4.2-8.5c11.8-19.4 15.1-41.2 9.5-62.6-6.5-25.1-21.8-42-45-49.9-4.4-1.5-8.5-1.9-20.1-1.9h-14.7l2-2.8c2.7-3.8 16.9-16.1 23.1-20.1 10.6-6.8 31.5-17.6 40.5-21 15.6-6 38.1-11.2 60.7-14.2 18.2-2.5 65-2.5 86.3-.1 24.3 2.8 57.1 9.9 73.2 16 17.2 6.6 45.9 20.1 55.6 26.3l5.5 3.5-1.8 2.7c-8 12-8.3 19.9-.6 19 2.2-.2 3.8-1.9 8.5-9 13.1-19.8 27.9-29.8 44.3-29.8 19.3 0 30.3 14.3 25 32.6-3.2 11.3-7.2 17.2-20.2 30.2L839 283.1l1.6 3.7c7.8 18.4 12.3 34.7 15.5 57.4 1.8 12.5 2.2 19.7 2.2 38.8 0 23.2-.2 25.3-6.8 92.8-3.2 33.2-3.9 53.6-2.7 74.7 1 17.2 5 48.1 9.1 70.5 7.1 38.3 8.9 79.4 4.6 106.1-1.6 10.4-7 29.4-11.2 39.3-14.5 34.6-48.7 61.6-98.3 77.4-35.1 11.2-90.9 16.5-137 13.1m11.8-196c13.5-1.4 33.1-5.5 43.4-8.9 8.9-3 31.9-14 35.1-16.8 3.3-2.9.9-10.2-3.5-10.2-1.8 0-2-.4-1.2-3.2 2.2-8.2-.2-29.6-4.1-37.2-2.1-3.9-1.9-5.1 1-7 4.2-2.8 2.4-10.6-2.5-10.6-1 0-7.3 2.8-14.1 6.3-13.4 6.8-30 12.7-49.9 17.6-22.5 5.5-31.1 6.5-59 6.6-27.4.1-28.7.3-34.8 5.9-4.6 4.1-5.1 6.5-4.9 20.3.2 12 .4 13.2 3 17.5 5.6 9.7 18.7 15.9 40.2 19.2 10.9 1.7 38 2 51.3.5m72.4-261.8c32.8-8.5 56-30.4 64-60.6 2.9-10.9 2.9-29.6 0-40.6-6.3-23.6-22.9-44.3-44.3-55.4-12.3-6.3-22.1-8.5-38.9-8.5-22.7.1-38.8 5.2-56.3 18.1-14.5 10.6-26.9 30.5-30.9 49.5-2.3 11.5-2.1 28.8.6 38.9 2.5 9.3 9.8 23.3 16 30.7 12.5 14.9 33.8 26.6 54.1 29.8 8.8 1.3 26.8.4 35.7-1.9m127.7-135.4c.6-.8 1.4-2.9 1.7-4.8.7-3.7 6-9.8 13.7-15.7 5-3.8 6-6.8 3.2-9.6-4.4-4.3-10-2-21.7 9.2-8.7 8.3-11.5 13-9.8 16.1 2.7 5.1 10.3 7.9 12.9 4.8m35.3 509.5c-.9-.6-.7-2.2 1.2-6.8 1.3-3.2 3.4-9.9 4.7-14.9 1.2-4.9 2.7-9.3 3.2-9.6 1.3-.9 7.3.6 10.3 2.6 9.4 6.2 8 21.9-2.6 27.3-4.5 2.2-14.1 3.1-16.8 1.4M413.6 251.4c-.9-.8-3-3.6-4.8-6.1-11.4-16.7-8.3-34.8 7.6-43.1 4.2-2.2 6.4-2.6 12.6-2.6 6.3 0 8.4.4 13 2.8 6.6 3.5 14.1 8.7 13.8 9.7-.2.3-3.5 4.1-7.4 8.2l-7.1 7.6-3.8-1.9c-5.9-3-12.2-3.6-14.6-1.4-3.6 3.3-2.2 6.5 4.4 9.6 6 2.9 6.6 4 4.2 7.5-1.7 2.4-13.8 11.3-15.4 11.3-.5 0-1.7-.7-2.5-1.6" style="fill:#8fd8dc"/><path d="M762.4 899.9c-7.5-2.2-19.1-16.6-24.9-30.7-2.8-6.9-3.1-9.2-1.2-9.2s19.2-4.9 28.7-8.1c4.7-1.6 8.9-2.9 9.4-2.9.4 0 2.7 4.2 5.1 9.3 6.6 13.9 8 26.6 3.7 34-.9 1.5-1.9 2.7-2.3 2.7-.3 0-1.4-2.1-2.4-4.7-2.8-7.6-6.4-13.3-8.4-13.3-2.1 0-5.1 3-5.1 5.1 0 .8 1.2 4.9 2.7 9.2 2.4 6.7 2.6 7.9 1.3 8.7-1.8 1.1-2.5 1.1-6.6-.1m-296.7-21.2c-1.8-1.2-1.8-1.5-.3-5.1.8-2 2.5-5 3.6-6.6 5.5-7.7-1.5-14-7.6-6.7-1.5 1.7-3.8 5.6-5.1 8.6-2.3 5.1-2.5 5.3-4.1 3.7-4.7-4.7 1.2-20.9 11.4-31 3.2-3.2 7.6-7 9.6-8.3l3.7-2.5 4.8 2.7c2.6 1.5 10.4 5.1 17.3 8.1 6.9 2.9 12.6 5.8 12.8 6.3s-4.4 5.7-10.2 11.5c-9.2 9.4-11.5 11.1-19.8 15.1-11.2 5.3-13.7 6-16.1 4.2m121.8-227.8c-16.9-2.2-38.8-9.7-42.1-14.3-.8-1.1-1.4-2.9-1.4-4 0-1.7.5-1.8 6.1-1.2 7 .8 9.9-.7 9.9-5.4 0-3.8-1.6-4.8-10.1-6.6-4.1-.8-7.6-1.7-7.8-2-1.2-1.2 2.4-5.7 5.6-7.1 3.2-1.3 6.7-1.4 22.3-.8 19.7.7 29.8-.1 48-3.6 30.6-6 50.1-12.2 68.7-21.8 10.7-5.6 11.7-5.9 12.9-4.3 3 4.1 6.4 21.4 6.4 32.9 0 8.1-1.2 12.3-3.5 12.3-.9 0-3.5 1.3-5.8 2.9-13.7 9.3-44.8 19.7-66.2 22-14.2 1.6-35.3 2.1-43 1m-208.4-63c-14.5-1.4-29.6-3.9-37.8-6.2l-7.8-2.2v-16.8l4.5-1.3c6-1.8 9.8-5.1 11.5-9.9 1.3-3.8 1.6-4 5.2-3.9 21.5.8 40.2-.2 43.6-2.3.7-.4.8 6 .4 20.7-.4 16.1-.9 21.5-1.9 22.1-1.5 1-6 .9-17.7-.2M566 413.8c-10-3.6-20.6-4.1-30.8-1.4-7.2 1.8-16 2.1-21.2.6-2-.5-5.1-2.6-7-4.5-3.3-3.4-3.5-3.9-3.5-10.9 0-6.3.4-7.9 3-12.2 1.7-2.7 5.8-7 9.2-9.6l6.2-4.6 4.3 4.3c4.8 4.7 8.8 6.3 18.9 7.2 12 1.1 24.4-2.3 29.8-8.1 3.1-3.3 4.1-3.3 11.3.6 17.9 9.6 21.4 30.8 6.3 39-7 3.8-15 3.7-26.5-.4" style="fill:#e1c99c"/><path d="M554.8 460.4c-1.2-1.2-1-37.4.2-37.4.6 0 3.6.9 6.8 1.9 3.1 1.1 7.6 2.4 10 3 2.3.7 4.2 1.7 4.2 2.4s-.4 5-1 9.6c-1.2 10.2-3.4 16.5-6.7 18.6-2.7 1.8-12.4 3.2-13.5 1.9m-18-1.9c-4.9-2.7-8.8-14.5-8.8-27.2 0-5.8-.8-5.1 9.4-7.3 2.7-.6 5-.9 5.1-.8.3.3.8 33.2.6 35.6-.1 1.6-2.9 1.5-6.3-.3m121.7-71c-25.9-5.7-46.1-25-52.5-50.2-5.4-20.9-.2-45.5 13.3-63 5.1-6.7 18.1-17.3 25.3-20.7 12.4-5.9 18.6-7.1 36.4-7.1 18.9 0 25.5 1.5 36.9 8.2 30.1 17.9 44.2 55.2 32.7 86.8-6.7 18.5-23.1 35.2-41.7 42.5-12.2 4.8-36.6 6.5-50.4 3.5m23.5-48c5.4-1.9 11.5-7.6 14-13 2.2-4.8 2.5-15.1.5-19.9-.7-1.8-2.8-4.9-4.6-7-11.2-12.7-31-10.6-39.7 4.2-2.4 4-2.8 5.8-2.8 12.2s.4 8.2 2.8 12.2c6.3 10.7 18.4 15.3 29.8 11.3m-243.1 36.2c-18.2-5.5-31.7-18.7-37.4-37-11.6-36.7 8.4-75.8 45-87.9 9.7-3.1 24.1-3.2 34-.1 8.3 2.6 19.6 10.1 24.8 16.5 5.1 6.3 11.5 19.6 13.2 27.4 5.2 24.6-3.1 48.5-23.2 67.4-15.3 14.4-36.6 19.5-56.4 13.7m-.2-37.2c9-4.5 13.8-13 13.1-23.1-.5-8.1-4.4-14.7-11.2-18.9-4.2-2.5-5.9-3-11.6-3s-7.4.5-11.6 3c-6.8 4.3-10.7 10.8-11.2 19-.5 7.8 1 12.6 5.7 17.8 7.1 7.9 17.3 9.9 26.8 5.2" style="fill:#fefbf4"/></svg>